<?xml version="1.0" standalone="no"?>
<!DOCTYPE svg PUBLIC "-//W3C//DTD SVG 20010904//EN"
 "http://www.w3.org/TR/2001/REC-SVG-20010904/DTD/svg10.dtd">
<svg version="1.0" xmlns="http://www.w3.org/2000/svg"
 width="500.000000pt" height="500.000000pt" viewBox="0 0 500.000000 500.000000"
 preserveAspectRatio="xMidYMid meet">

<g transform="translate(0.000000,500.000000) scale(0.100000,-0.100000)"
fill="#000000" stroke="none">
<path d="M980 4603 c0 -20 30 -75 49 -91 9 -7 27 -17 41 -23 27 -11 118 -15
127 -5 10 9 -47 65 -92 91 -54 32 -125 48 -125 28z"/>
<path d="M546 4585 c45 -187 158 -334 291 -375 43 -13 93 -20 150 -20 183 0
359 -69 476 -186 104 -104 100 -198 -8 -240 -100 -38 -251 3 -385 105 -30 23
-56 37 -58 32 -2 -5 9 -33 24 -62 79 -157 188 -229 588 -389 204 -82 278 -122
329 -179 57 -63 61 -110 12 -133 -36 -16 -88 2 -161 57 -79 58 -132 77 -219
76 -59 0 -168 -21 -181 -34 -2 -2 18 -13 45 -26 109 -49 181 -138 281 -346 58
-121 68 -135 158 -225 86 -85 109 -102 202 -147 102 -50 214 -83 282 -83 18 0
53 -6 78 -14 204 -62 444 1 598 156 128 130 185 263 185 438 1 120 -15 187
-71 293 -43 83 -209 268 -293 327 -122 86 -277 145 -509 194 -140 30 -214 93
-311 264 -118 210 -251 316 -447 357 -75 15 -272 21 -272 7 0 -4 30 -18 68
-30 159 -56 330 -164 412 -262 94 -112 150 -242 150 -347 0 -65 -11 -89 -45
-97 -63 -16 -140 50 -205 175 -126 244 -268 383 -449 440 -36 11 -115 24 -176
29 -131 10 -188 23 -272 61 -84 37 -144 80 -215 153 -55 56 -59 58 -52 31z
m2190 -1019 c68 -14 84 -22 84 -39 0 -9 -2 -9 -8 0 -4 7 -43 19 -86 28 -77 14
-108 25 -70 25 10 -1 46 -7 80 -14z m-283 -20 c-10 -13 -47 -37 -83 -54 -36
-17 -85 -46 -110 -64 -45 -35 -90 -53 -90 -38 0 11 95 91 143 119 42 26 124
60 145 61 9 0 8 -7 -5 -24z m446 -25 c60 -31 138 -97 186 -159 25 -31 45 -60
45 -64 0 -17 -59 19 -110 68 -30 28 -75 66 -100 84 -40 28 -69 62 -70 83 0 11
7 9 49 -12z m-339 -59 l55 -27 -2 -80 c-3 -129 -6 -136 -65 -169 -29 -16 -80
-47 -112 -69 l-59 -40 -95 47 -94 47 7 56 c17 142 32 161 170 236 81 43 106
43 195 -1z m368 -47 c33 -25 74 -61 91 -81 28 -31 31 -41 31 -103 0 -92 -9
-130 -33 -143 -11 -5 -59 -18 -106 -28 l-86 -17 -60 54 c-33 30 -77 67 -98 81
l-38 27 6 99 c4 55 9 105 12 113 8 20 90 42 160 42 57 1 65 -2 121 -44z m-754
-145 c-10 -46 -20 -77 -22 -71 -5 14 29 163 35 157 3 -2 -4 -41 -13 -86z m955
-10 c20 -10 56 -87 65 -140 4 -19 -5 -4 -20 35 -14 39 -37 80 -50 93 -27 23
-24 28 5 12z m-1094 -100 c-26 -84 -34 -74 -9 11 17 57 24 73 30 67 1 -2 -8
-37 -21 -78z m601 -2 c17 -13 56 -45 87 -72 61 -52 67 -69 41 -121 -8 -16 -12
-21 -8 -10 20 70 20 69 -62 139 -42 36 -84 66 -94 66 -9 0 -37 -13 -63 -30
-26 -16 -47 -27 -47 -25 0 6 101 74 111 74 3 1 19 -9 35 -21z m-352 -60 l84
-42 13 -65 c6 -36 20 -93 29 -126 l17 -61 -64 -76 -64 -77 -42 16 c-62 24
-125 70 -142 103 -20 39 -45 146 -45 195 0 27 9 54 26 80 36 54 75 95 91 95 7
0 51 -19 97 -42z m831 -145 l27 -57 -17 -55 c-9 -31 -31 -83 -48 -115 -27 -51
-39 -62 -84 -83 -29 -14 -77 -27 -105 -29 l-53 -5 -53 81 -53 82 40 93 c22 52
43 106 47 120 8 32 24 39 128 60 44 8 82 18 85 21 10 9 56 -52 86 -113z
m-1060 -44 c8 -46 21 -104 30 -128 26 -74 16 -92 -15 -26 -32 69 -50 146 -50
212 0 70 17 41 35 -58z m1145 -44 c-13 -62 -75 -193 -114 -240 l-25 -30 -1 25
c0 14 16 55 35 90 19 36 42 90 51 120 14 50 51 106 62 96 2 -3 -2 -30 -8 -61z
m-615 -95 c61 -5 113 -10 117 -10 5 0 33 -38 64 -85 l57 -85 -37 -45 c-21 -25
-53 -57 -73 -72 -32 -25 -44 -28 -112 -27 -140 1 -202 37 -262 148 l-23 43 65
76 c40 48 70 75 79 72 8 -2 65 -9 125 -15z m-295 -303 l35 -28 -35 18 c-37 19
-170 144 -170 160 0 5 30 -20 68 -57 37 -36 83 -78 102 -93z m727 86 c-17 -19
-77 -57 -77 -49 0 5 81 66 89 66 2 0 -3 -8 -12 -17z m-497 -124 c30 -6 81 -9
112 -6 39 3 62 1 75 -9 16 -12 12 -14 -37 -15 -97 -2 -134 1 -203 18 -47 11
-65 18 -55 24 7 5 22 7 33 4 11 -3 45 -10 75 -16z"/>
<path d="M2115 4258 c39 -129 195 -306 325 -369 77 -38 214 -78 225 -67 19 19
-80 175 -148 235 -77 67 -223 151 -355 202 l-53 21 6 -22z"/>
<path d="M509 4213 c53 -106 170 -194 274 -209 55 -7 59 2 27 65 -43 85 -168
165 -278 179 l-44 5 21 -40z"/>
<path d="M854 3720 c12 -144 85 -245 230 -315 111 -53 211 -75 347 -75 l102 0
-24 26 c-40 43 -160 130 -224 163 -33 17 -93 38 -134 47 -41 8 -96 24 -122 36
-44 18 -117 85 -162 148 l-18 25 5 -55z"/>
<path d="M1513 1887 l-33 -11 0 -399 0 -399 118 4 c64 2 123 7 130 11 9 6 12
68 12 250 l0 242 20 -32 c11 -18 22 -44 26 -58 3 -14 10 -23 14 -20 4 3 11 -3
14 -12 5 -13 17 0 49 52 38 63 42 67 45 42 2 -16 -7 -47 -22 -74 -25 -44 -26
-52 -26 -212 0 -91 4 -172 9 -180 7 -11 33 -13 123 -9 62 2 119 8 126 12 17
10 17 777 0 794 -16 16 -154 16 -212 0 -34 -9 -47 -19 -59 -43 -10 -21 -12
-37 -6 -48 7 -11 5 -25 -4 -42 -13 -26 -13 -25 -58 57 l-46 83 -94 1 c-52 1
-109 -3 -126 -9z"/>
<path d="M2405 1887 c-16 -6 -32 -12 -33 -13 -10 -6 -168 -780 -161 -788 8 -9
235 -4 245 7 3 3 9 27 11 52 6 52 13 59 51 50 25 -5 30 -12 38 -58 l9 -52 75
-3 c41 -2 99 0 128 3 43 5 52 10 52 26 0 26 -157 765 -165 779 -8 13 -211 11
-250 -3z m143 -424 l8 -93 -29 0 c-27 0 -29 2 -23 33 3 17 8 57 11 87 13 113
21 106 33 -27z"/>
<path d="M2935 1887 c-16 -6 -31 -12 -33 -13 -2 -1 31 -90 74 -197 l77 -196
-77 -190 c-42 -105 -76 -196 -76 -201 0 -11 189 -12 230 -1 21 5 29 20 50 83
14 42 28 80 32 83 13 14 20 -64 8 -99 -8 -27 -8 -40 0 -57 11 -20 17 -21 131
-17 65 2 122 7 125 11 4 4 -28 95 -71 204 l-77 196 77 193 c42 106 74 198 70
204 -9 14 -167 13 -215 -2 -42 -14 -46 -21 -30 -62 6 -17 5 -39 -4 -68 l-12
-43 -30 90 -29 90 -95 2 c-52 0 -108 -4 -125 -10z"/>
<path d="M1170 1039 c-87 -14 -159 -56 -194 -113 -27 -42 -30 -58 -30 -120 0
-86 21 -130 91 -197 76 -72 133 -109 169 -109 38 0 39 -2 48 -53 7 -36 6 -38
-16 -35 -18 2 -24 11 -28 38 l-5 35 -75 3 c-41 2 -99 0 -127 -3 l-53 -6 0 -52
c1 -173 164 -255 379 -191 99 29 153 105 153 215 0 33 -7 72 -17 92 -18 39
-87 107 -183 180 -69 52 -92 88 -75 115 5 9 18 18 27 20 12 3 16 -4 16 -27 0
-51 29 -71 103 -70 104 2 121 9 125 48 15 152 -127 258 -308 230z"/>
<path d="M2450 1039 c-88 -14 -159 -56 -195 -113 l-30 -49 -3 -233 c-3 -255 1
-290 48 -346 49 -59 110 -83 210 -82 110 1 185 29 234 85 52 62 58 96 54 355
l-3 231 -30 49 c-52 83 -162 123 -285 103z m75 -376 c0 -109 3 -210 8 -225 7
-25 5 -28 -17 -28 -13 0 -27 7 -30 16 -12 31 -7 409 6 422 30 30 33 10 33
-185z"/>
<path d="M1593 1027 l-33 -11 0 -88 0 -88 75 0 75 0 2 -307 3 -308 115 0 c63
0 123 3 133 7 16 7 17 31 17 311 l0 303 70 0 c38 0 75 5 80 10 7 7 10 46 8 95
l-3 84 -255 1 c-158 1 -267 -3 -287 -9z"/>
<path d="M2892 1027 l-32 -11 2 -396 3 -395 75 -3 c41 -2 99 0 128 3 l52 6 0
152 c0 86 4 147 9 141 21 -22 43 -157 39 -231 l-5 -75 121 4 c67 2 126 7 132
11 8 5 -3 57 -37 174 l-48 168 23 25 c48 51 61 90 61 180 0 94 -18 142 -72
191 -61 57 -85 63 -258 65 -97 1 -173 -2 -193 -9z m278 -247 c0 -68 -1 -70
-25 -70 -24 0 -25 2 -25 63 0 69 3 77 32 77 16 0 18 -9 18 -70z"/>
<path d="M3543 1027 l-33 -11 0 -398 0 -398 213 0 c116 0 229 3 250 6 l38 7
-3 91 -3 91 -117 3 -118 3 0 58 0 59 60 -1 c34 0 65 4 71 10 5 5 9 47 7 94
l-3 84 -67 3 -68 3 0 59 0 59 64 -6 c35 -3 89 -2 120 1 l57 8 -3 91 -3 92
-215 1 c-130 1 -228 -3 -247 -9z"/>
</g>
</svg>
